# This file uses centimeters as units for non-parametric coordinates.

v 0.433013 -0.862946 -0.250000
v 0.250000 -0.862946 -0.433013
v 0.000000 -0.862946 -0.500000
v -0.250000 -0.862946 -0.433013
v -0.433013 -0.862946 -0.250000
v -0.500000 -0.862946 0.000000
v -0.433013 -0.862946 0.250000
v -0.250000 -0.862946 0.433013
v 0.000000 -0.862946 0.500000
v 0.250000 -0.862946 0.433013
v 0.433013 -0.862946 0.250000
v 0.500000 -0.862946 0.000000
v 0.612372 -0.704028 -0.353553
v 0.353553 -0.704028 -0.612372
v 0.000000 -0.704028 -0.707107
v -0.353553 -0.704028 -0.612372
v -0.612372 -0.704028 -0.353553
v -0.707107 -0.704028 0.000000
v -0.612372 -0.704028 0.353553
v -0.353553 -0.704028 0.612372
v 0.000000 -0.704028 0.707107
v 0.353553 -0.704028 0.612372
v 0.612372 -0.704028 0.353553
v 0.707107 -0.704028 0.000000
v 0.750000 -0.496919 -0.433013
v 0.433013 -0.496919 -0.750000
v 0.000000 -0.496919 -0.866025
v -0.433013 -0.496919 -0.750000
v -0.750000 -0.496919 -0.433013
v -0.866025 -0.496919 0.000000
v -0.750000 -0.496919 0.433013
v -0.433013 -0.496919 0.750000
v 0.000000 -0.496919 0.866025
v 0.433013 -0.496919 0.750000
v 0.750000 -0.496919 0.433013
v 0.866025 -0.496919 0.000000
v 0.836516 -0.255739 -0.482963
v 0.482963 -0.255739 -0.836516
v 0.000000 -0.255739 -0.965926
v -0.482963 -0.255739 -0.836516
v -0.836516 -0.255739 -0.482963
v -0.965926 -0.255739 0.000000
v -0.836516 -0.255739 0.482963
v -0.482963 -0.255739 0.836516
v 0.000000 -0.255739 0.965926
v 0.482963 -0.255739 0.836516
v 0.836516 -0.255739 0.482963
v 0.965926 -0.255739 0.000000
v 0.866025 0.003082 -0.500000
v 0.500000 0.003082 -0.866025
v 0.000000 0.003082 -1.000000
v -0.500000 0.003082 -0.866025
v -0.866025 0.003082 -0.500000
v -1.000000 0.003082 -0.000000
v -0.866025 0.003082 0.500000
v -0.500000 0.003082 0.866025
v 0.000000 0.003082 1.000000
v 0.500000 0.003082 0.866025
v 0.866025 0.003082 0.500000
v 1.000000 0.003082 -0.000000
v 0.836516 0.261900 -0.482963
v 0.482963 0.261900 -0.836516
v 0.000000 0.261900 -0.965926
v -0.482963 0.261900 -0.836516
v -0.836516 0.261900 -0.482963
v -0.965926 0.261900 -0.000000
v -0.836516 0.261900 0.482963
v -0.482963 0.261900 0.836516
v 0.000000 0.261900 0.965926
v 0.482963 0.261900 0.836516
v 0.836516 0.261900 0.482963
v 0.965926 0.261900 -0.000000
v 0.750000 0.503080 -0.433013
v 0.433013 0.503080 -0.750000
v 0.000000 0.503080 -0.866025
v -0.433013 0.503080 -0.750000
v -0.750000 0.503080 -0.433013
v -0.866025 0.503080 -0.000000
v -0.750000 0.503080 0.433013
v -0.433013 0.503080 0.750000
v 0.000000 0.503080 0.866025
v 0.433013 0.503080 0.750000
v 0.750000 0.503080 0.433013
v 0.866025 0.503080 -0.000000
v 0.612372 0.710187 -0.353553
v 0.353553 0.710187 -0.612372
v 0.000000 0.710187 -0.707107
v -0.353553 0.710187 -0.612372
v -0.612372 0.710187 -0.353553
v -0.707107 0.710187 -0.000000
v -0.612372 0.710187 0.353553
v -0.353553 0.710187 0.612372
v 0.000000 0.710187 0.707107
v 0.353553 0.710187 0.612372
v 0.612372 0.710187 0.353553
v 0.707107 0.710187 -0.000000
v 0.433013 0.869106 -0.250000
v 0.250000 0.869106 -0.433013
v 0.000000 0.869106 -0.500000
v -0.250000 0.869106 -0.433013
v -0.433013 0.869106 -0.250000
v -0.500000 0.869106 -0.000000
v -0.433013 0.869106 0.250000
v -0.250000 0.869106 0.433013
v 0.000000 0.869106 0.500000
v 0.250000 0.869106 0.433013
v 0.433013 0.869106 0.250000
v 0.500000 0.869106 -0.000000
v 0.224144 0.969006 -0.129410
v 0.129410 0.969006 -0.224144
v 0.000000 0.969006 -0.258819
v -0.129410 0.969006 -0.224144
v -0.224144 0.969006 -0.129410
v -0.258819 0.969006 -0.000000
v -0.224144 0.969006 0.129410
v -0.129410 0.969006 0.224144
v 0.000000 0.969006 0.258819
v 0.129410 0.969006 0.224144
v 0.224144 0.969006 0.129410
v 0.258819 0.969006 -0.000000
v 0.000000 1.003080 -0.000000
v 0.117052 -12.630707 -0.067580
v 0.067580 -12.630707 -0.117052
v 0.000000 -12.630707 -0.135160
v -0.067580 -12.630707 -0.117052
v -0.117052 -12.630707 -0.067580
v -0.135160 -12.630707 0.000000
v -0.117052 -12.630707 0.067580
v -0.067580 -12.630707 0.117052
v 0.000000 -12.630707 0.135160
v 0.067580 -12.630707 0.117052
v 0.117052 -12.630707 0.067580
v 0.135160 -12.630707 0.000000
v 0.028095 -3.978850 0.135160
v 0.095675 -3.978850 0.117052
v 0.145147 -3.978850 0.067580
v 0.163255 -3.978850 0.000000
v 0.145147 -3.978850 -0.067580
v 0.095675 -3.978850 -0.117052
v 0.028095 -3.978850 -0.135160
v -0.039485 -3.978850 -0.117052
v -0.088956 -3.978850 -0.067580
v -0.107064 -3.978850 0.000000
v -0.088956 -3.978850 0.067580
v -0.039485 -3.978850 0.117052
v 0.028095 -8.776087 0.135160
v 0.095675 -8.776087 0.117052
v 0.145147 -8.776087 0.067580
v 0.163255 -8.776087 0.000000
v 0.145147 -8.776087 -0.067580
v 0.095675 -8.776087 -0.117052
v 0.028095 -8.776087 -0.135160
v -0.039485 -8.776087 -0.117052
v -0.088956 -8.776087 -0.067580
v -0.107064 -8.776087 0.000000
v -0.088956 -8.776087 0.067580
v -0.039485 -8.776087 0.117052
v 0.180237 -0.998269 -0.104060
v 0.118912 -1.110251 -0.067580
v 0.104060 -0.998269 -0.180238
v 0.069440 -1.110260 -0.117052
v 0.000000 -0.998269 -0.208120
v 0.001861 -1.110270 -0.135160
v -0.104060 -0.998269 -0.180238
v -0.065719 -1.110260 -0.117052
v -0.180238 -0.998269 -0.104060
v -0.115191 -1.110251 -0.067580
v -0.208120 -0.998269 -0.000000
v -0.133299 -1.110251 0.000000
v -0.180237 -0.998269 0.104060
v -0.115191 -1.110251 0.067580
v -0.104060 -0.998269 0.180238
v -0.065719 -1.110260 0.117052
v -0.000000 -0.998269 0.208120
v 0.001861 -1.110270 0.135160
v 0.104060 -0.998269 0.180238
v 0.069440 -1.110260 0.117052
v 0.180238 -0.998269 0.104060
v 0.118912 -1.110251 0.067580
v 0.208120 -0.998269 0.000000
v 0.137020 -1.110251 0.000000
vt 0.833349 0.693222
vt 0.916683 0.719348
vt 0.833349 0.719348
vt 0.000016 0.693222
vt 0.000016 0.719348
vt 0.083349 0.693222
vt 0.083349 0.719348
vt 0.166683 0.693222
vt 0.166683 0.719348
vt 0.250016 0.693222
vt 0.250016 0.719348
vt 0.333349 0.693222
vt 0.333349 0.719348
vt 0.416683 0.693222
vt 0.416683 0.719348
vt 0.500016 0.693222
vt 0.500016 0.719348
vt 0.583349 0.693222
vt 0.583349 0.719348
vt 0.666683 0.693222
vt 0.666683 0.719348
vt 0.750016 0.693222
vt 0.750016 0.719348
vt 0.916683 0.753397
vt 0.833349 0.753397
vt 0.000016 0.753397
vt 0.083349 0.753397
vt 0.166683 0.753397
vt 0.250016 0.753397
vt 0.333349 0.753397
vt 0.416683 0.753397
vt 0.500016 0.753397
vt 0.583349 0.753397
vt 0.666683 0.753397
vt 0.750016 0.753397
vt 0.916683 0.793048
vt 0.833349 0.793048
vt 0.000016 0.793048
vt 0.083349 0.793048
vt 0.166683 0.793048
vt 0.250016 0.793048
vt 0.333349 0.793048
vt 0.416683 0.793048
vt 0.500016 0.793048
vt 0.583349 0.793048
vt 0.666683 0.793048
vt 0.750016 0.793048
vt 0.916683 0.835598
vt 0.833349 0.835598
vt 0.000016 0.835598
vt 0.083349 0.835598
vt 0.166683 0.835598
vt 0.250016 0.835598
vt 0.333349 0.835598
vt 0.416683 0.835598
vt 0.500016 0.835598
vt 0.583349 0.835598
vt 0.666683 0.835598
vt 0.750016 0.835598
vt 0.916683 0.878148
vt 0.833349 0.878148
vt 0.000016 0.878148
vt 0.083349 0.878148
vt 0.166683 0.878148
vt 0.250016 0.878148
vt 0.333349 0.878148
vt 0.416683 0.878148
vt 0.500016 0.878148
vt 0.583349 0.878148
vt 0.666683 0.878148
vt 0.750016 0.878148
vt 0.916683 0.917799
vt 0.833349 0.917799
vt 0.000016 0.917799
vt 0.083349 0.917799
vt 0.166683 0.917799
vt 0.250016 0.917799
vt 0.333349 0.917799
vt 0.416683 0.917799
vt 0.500016 0.917799
vt 0.583349 0.917799
vt 0.666683 0.917799
vt 0.750016 0.917799
vt 0.916683 0.951848
vt 0.833349 0.951848
vt 0.000016 0.951848
vt 0.083349 0.951848
vt 0.166683 0.951848
vt 0.250016 0.951848
vt 0.333349 0.951848
vt 0.416683 0.951848
vt 0.500016 0.951848
vt 0.583349 0.951848
vt 0.666683 0.951848
vt 0.750016 0.951848
vt 0.916683 0.977974
vt 0.833349 0.977974
vt 0.000016 0.977974
vt 0.083349 0.977974
vt 0.166683 0.977974
vt 0.250016 0.977974
vt 0.333349 0.977974
vt 0.416683 0.977974
vt 0.500016 0.977974
vt 0.583349 0.977974
vt 0.666683 0.977974
vt 0.750016 0.977974
vt 0.916683 0.994398
vt 0.833349 0.994398
vt 0.000016 0.994398
vt 0.083349 0.994398
vt 0.166683 0.994398
vt 0.250016 0.994398
vt 0.333349 0.994398
vt 0.416683 0.994398
vt 0.500016 0.994398
vt 0.583349 0.994398
vt 0.666683 0.994398
vt 0.750016 0.994398
vt 0.500000 1.000000
vt 0.609076 0.471390
vt 0.532634 0.471390
vt 0.532634 0.208882
vt 0.609076 0.208882
vt 0.680665 0.471390
vt 0.680665 0.208882
vt 0.750016 0.471390
vt 0.750016 0.208882
vt 0.819367 0.471390
vt 0.819367 0.208882
vt 0.890956 0.471390
vt 0.890956 0.208882
vt 0.967397 0.471390
vt 0.051795 0.471390
vt 0.051795 0.208882
vt 0.146616 0.471390
vt 0.146616 0.208882
vt 0.250016 0.471390
vt 0.250016 0.208882
vt 0.353415 0.471390
vt 0.353415 0.208882
vt 0.448237 0.471390
vt 0.448237 0.208882
vt 0.500016 0.000000
vt 0.583349 0.000000
vt 0.666683 0.000000
vt 0.750016 0.000000
vt 0.833349 0.000000
vt 1.000016 0.000000
vt 0.083349 0.000000
vt 0.166683 0.000000
vt 0.250016 0.000000
vt 0.333349 0.000000
vt 0.416683 0.000000
vt 0.833349 0.670974
vt 0.832267 0.652565
vt 0.914798 0.652563
vt 0.916683 0.670974
vt 0.750016 0.670974
vt 0.750016 0.652565
vt 0.000016 0.670974
vt 0.081439 0.652563
vt 0.083349 0.670974
vt 0.165574 0.652565
vt 0.166683 0.670974
vt 0.250016 0.652565
vt 0.250016 0.670974
vt 0.334458 0.652565
vt 0.333349 0.670974
vt 0.418593 0.652563
vt 0.416683 0.670974
vt 0.502207 0.652561
vt 0.500016 0.670974
vt 0.585234 0.652563
vt 0.583349 0.670974
vt 0.667765 0.652565
vt 0.666683 0.670974
vt 1.000016 0.693222
vt 1.000016 0.719348
vt 1.000016 0.753397
vt 1.000016 0.793048
vt 1.000016 0.835598
vt 1.000016 0.878148
vt 1.000016 0.917799
vt 1.000016 0.951848
vt 1.000016 0.977974
vt 1.000016 0.994398
vt 0.967397 0.208882
vt 1.051795 0.208882
vt 0.916683 0.000000
vt 1.083349 0.000000
vt 1.081439 0.652563
vt 1.083349 0.670974
vt 1.000016 0.670974
vt 0.916683 0.693222
vt 0.997825 0.652561
vt 1.051795 0.471390
vn 0.472513 -0.838038 -0.272806
vn 0.272806 -0.838038 -0.472514
vn 0.364807 -0.683859 -0.631864
vn 0.631864 -0.683859 -0.364807
vn -0.000000 -0.838038 -0.545612
vn 0.000000 -0.683859 -0.729614
vn -0.272806 -0.838038 -0.472514
vn -0.364807 -0.683859 -0.631864
vn -0.472513 -0.838038 -0.272806
vn -0.631864 -0.683859 -0.364807
vn -0.545612 -0.838038 0.000000
vn -0.729614 -0.683859 -0.000000
vn -0.472514 -0.838038 0.272806
vn -0.631864 -0.683859 0.364807
vn -0.272806 -0.838038 0.472514
vn -0.364807 -0.683859 0.631864
vn 0.000000 -0.838038 0.545612
vn -0.000000 -0.683859 0.729614
vn 0.272806 -0.838038 0.472514
vn 0.364807 -0.683859 0.631864
vn 0.472513 -0.838038 0.272806
vn 0.631864 -0.683859 0.364807
vn 0.545612 -0.838038 -0.000000
vn 0.729614 -0.683859 0.000000
vn 0.438134 -0.481822 -0.758871
vn 0.758871 -0.481822 -0.438135
vn 0.000000 -0.481822 -0.876269
vn -0.438134 -0.481822 -0.758871
vn -0.758871 -0.481822 -0.438135
vn -0.876269 -0.481822 -0.000000
vn -0.758871 -0.481822 0.438135
vn -0.438134 -0.481822 0.758871
vn -0.000000 -0.481822 0.876269
vn 0.438134 -0.481822 0.758871
vn 0.758871 -0.481822 0.438135
vn 0.876269 -0.481822 0.000000
vn 0.484273 -0.248837 -0.838785
vn 0.838785 -0.248837 -0.484273
vn 0.000000 -0.248837 -0.968545
vn -0.484273 -0.248837 -0.838785
vn -0.838785 -0.248837 -0.484273
vn -0.968545 -0.248837 0.000000
vn -0.838785 -0.248837 0.484273
vn -0.484273 -0.248837 0.838785
vn 0.000000 -0.248837 0.968545
vn 0.484273 -0.248837 0.838785
vn 0.838785 -0.248837 0.484273
vn 0.968545 -0.248837 0.000000
vn 0.500000 -0.000000 -0.866025
vn 0.866025 -0.000000 -0.500000
vn 0.000000 -0.000000 -1.000000
vn -0.500000 -0.000000 -0.866025
vn -0.866025 -0.000000 -0.500000
vn -1.000000 -0.000000 0.000000
vn -0.866025 -0.000000 0.500000
vn -0.500000 -0.000000 0.866025
vn 0.000000 -0.000000 1.000000
vn 0.500000 -0.000000 0.866025
vn 0.866025 -0.000000 0.500000
vn 1.000000 -0.000000 0.000000
vn 0.484273 0.248838 -0.838785
vn 0.838785 0.248838 -0.484273
vn 0.000000 0.248838 -0.968545
vn -0.484273 0.248838 -0.838785
vn -0.838785 0.248838 -0.484273
vn -0.968545 0.248838 -0.000000
vn -0.838785 0.248838 0.484273
vn -0.484273 0.248838 0.838785
vn 0.000000 0.248838 0.968545
vn 0.484273 0.248838 0.838785
vn 0.838785 0.248838 0.484273
vn 0.968545 0.248838 0.000000
vn 0.438134 0.481822 -0.758871
vn 0.758871 0.481822 -0.438135
vn 0.000000 0.481822 -0.876269
vn -0.438134 0.481822 -0.758871
vn -0.758871 0.481822 -0.438135
vn -0.876269 0.481822 0.000000
vn -0.758871 0.481822 0.438134
vn -0.438134 0.481822 0.758871
vn 0.000000 0.481822 0.876269
vn 0.438134 0.481822 0.758871
vn 0.758871 0.481822 0.438135
vn 0.876269 0.481822 0.000000
vn 0.364806 0.683861 -0.631863
vn 0.631863 0.683861 -0.364806
vn 0.000000 0.683861 -0.729612
vn -0.364806 0.683861 -0.631863
vn -0.631863 0.683861 -0.364806
vn -0.729612 0.683861 0.000000
vn -0.631863 0.683861 0.364806
vn -0.364806 0.683861 0.631863
vn 0.000000 0.683861 0.729612
vn 0.364806 0.683861 0.631863
vn 0.631863 0.683861 0.364806
vn 0.729612 0.683861 -0.000000
vn 0.270244 0.841351 -0.468077
vn 0.468077 0.841351 -0.270244
vn 0.000000 0.841351 -0.540489
vn -0.270244 0.841351 -0.468077
vn -0.468077 0.841351 -0.270244
vn -0.540489 0.841351 -0.000000
vn -0.468077 0.841351 0.270244
vn -0.270244 0.841351 0.468077
vn 0.000000 0.841351 0.540489
vn 0.270244 0.841351 0.468077
vn 0.468077 0.841351 0.270244
vn 0.540489 0.841351 0.000000
vn 0.167291 0.942366 -0.289757
vn 0.289757 0.942366 -0.167291
vn 0.000000 0.942366 -0.334583
vn -0.167291 0.942366 -0.289757
vn -0.289757 0.942366 -0.167291
vn -0.334583 0.942366 -0.000000
vn -0.289757 0.942366 0.167291
vn -0.167291 0.942366 0.289757
vn 0.000000 0.942366 0.334583
vn 0.167291 0.942366 0.289757
vn 0.289757 0.942366 0.167291
vn 0.334583 0.942366 0.000000
vn 0.000000 1.000000 -0.000000
vn 0.500423 0.001714 0.865780
vn 0.000564 0.000005 1.000000
vn 0.000535 -0.000004 1.000000
vn 0.500401 -0.001626 0.865792
vn 0.866163 0.002963 0.499753
vn 0.866156 -0.002812 0.499766
vn 0.999994 0.003419 0.000000
vn 0.999995 -0.003245 0.000000
vn 0.866163 0.002963 -0.499753
vn 0.866156 -0.002812 -0.499766
vn 0.500423 0.001714 -0.865780
vn 0.500401 -0.001626 -0.865792
vn 0.000564 0.000005 -1.000000
vn 0.000535 -0.000004 -1.000000
vn -0.499576 -0.001708 -0.866268
vn -0.499598 0.001621 -0.866256
vn -0.865881 -0.002965 -0.500242
vn -0.865888 0.002813 -0.500230
vn -0.999994 -0.003426 0.000000
vn -0.999995 0.003249 0.000000
vn -0.865881 -0.002965 0.500242
vn -0.865888 0.002813 0.500230
vn -0.499576 -0.001708 0.866268
vn -0.499598 0.001621 0.866256
vn -0.001201 0.000009 0.999999
vn 0.499096 -0.003638 0.866539
vn 0.865708 -0.006310 0.500510
vn 0.999974 -0.007289 0.000000
vn 0.865708 -0.006310 -0.500510
vn 0.499096 -0.003638 -0.866539
vn -0.001201 0.000009 -0.999999
vn -0.500898 0.003651 -0.865499
vn -0.866309 0.006314 -0.499469
vn -0.999973 0.007289 0.000000
vn -0.866309 0.006314 0.499470
vn -0.500898 0.003651 0.865499
vn 0.422193 -0.873071 -0.243926
vn 0.865429 -0.025072 -0.500403
vn 0.498826 -0.028593 -0.866230
vn 0.243405 -0.873260 -0.422104
vn 0.487717 -0.873002 -0.000000
vn 0.999717 -0.023779 0.000000
vn -0.001320 -0.033396 -0.999441
vn -0.000299 -0.873518 -0.486792
vn -0.500645 -0.038201 -0.864810
vn -0.243388 -0.873778 -0.421040
vn -0.865607 -0.041712 -0.498983
vn -0.420948 -0.873969 -0.242862
vn -0.999075 -0.042993 0.000000
vn -0.485857 -0.874038 0.000000
vn -0.865607 -0.041712 0.498983
vn -0.420948 -0.873969 0.242862
vn -0.500645 -0.038201 0.864810
vn -0.243388 -0.873778 0.421040
vn -0.001320 -0.033396 0.999441
vn -0.000299 -0.873518 0.486792
vn 0.498826 -0.028593 0.866230
vn 0.243405 -0.873259 0.422104
vn 0.865429 -0.025072 0.500403
vn 0.422193 -0.873071 0.243926
s 1
f 1/1/1 2/195/2 14/2/3 13/3/4
f 2/195/2 3/178/5 15/179/6 14/2/3
f 3/4/5 4/6/7 16/7/8 15/5/6
f 4/6/7 5/8/9 17/9/10 16/7/8
f 5/8/9 6/10/11 18/11/12 17/9/10
f 6/10/11 7/12/13 19/13/14 18/11/12
f 7/12/13 8/14/15 20/15/16 19/13/14
f 8/14/15 9/16/17 21/17/18 20/15/16
f 9/16/17 10/18/19 22/19/20 21/17/18
f 10/18/19 11/20/21 23/21/22 22/19/20
f 11/20/21 12/22/23 24/23/24 23/21/22
f 12/22/23 1/1/1 13/3/4 24/23/24
f 13/3/4 14/2/3 26/24/25 25/25/26
f 14/2/3 15/179/6 27/180/27 26/24/25
f 15/5/6 16/7/8 28/27/28 27/26/27
f 16/7/8 17/9/10 29/28/29 28/27/28
f 17/9/10 18/11/12 30/29/30 29/28/29
f 18/11/12 19/13/14 31/30/31 30/29/30
f 19/13/14 20/15/16 32/31/32 31/30/31
f 20/15/16 21/17/18 33/32/33 32/31/32
f 21/17/18 22/19/20 34/33/34 33/32/33
f 22/19/20 23/21/22 35/34/35 34/33/34
f 23/21/22 24/23/24 36/35/36 35/34/35
f 24/23/24 13/3/4 25/25/26 36/35/36
f 25/25/26 26/24/25 38/36/37 37/37/38
f 26/24/25 27/180/27 39/181/39 38/36/37
f 27/26/27 28/27/28 40/39/40 39/38/39
f 28/27/28 29/28/29 41/40/41 40/39/40
f 29/28/29 30/29/30 42/41/42 41/40/41
f 30/29/30 31/30/31 43/42/43 42/41/42
f 31/30/31 32/31/32 44/43/44 43/42/43
f 32/31/32 33/32/33 45/44/45 44/43/44
f 33/32/33 34/33/34 46/45/46 45/44/45
f 34/33/34 35/34/35 47/46/47 46/45/46
f 35/34/35 36/35/36 48/47/48 47/46/47
f 36/35/36 25/25/26 37/37/38 48/47/48
f 37/37/38 38/36/37 50/48/49 49/49/50
f 38/36/37 39/181/39 51/182/51 50/48/49
f 39/38/39 40/39/40 52/51/52 51/50/51
f 40/39/40 41/40/41 53/52/53 52/51/52
f 41/40/41 42/41/42 54/53/54 53/52/53
f 42/41/42 43/42/43 55/54/55 54/53/54
f 43/42/43 44/43/44 56/55/56 55/54/55
f 44/43/44 45/44/45 57/56/57 56/55/56
f 45/44/45 46/45/46 58/57/58 57/56/57
f 46/45/46 47/46/47 59/58/59 58/57/58
f 47/46/47 48/47/48 60/59/60 59/58/59
f 48/47/48 37/37/38 49/49/50 60/59/60
f 49/49/50 50/48/49 62/60/61 61/61/62
f 50/48/49 51/182/51 63/183/63 62/60/61
f 51/50/51 52/51/52 64/63/64 63/62/63
f 52/51/52 53/52/53 65/64/65 64/63/64
f 53/52/53 54/53/54 66/65/66 65/64/65
f 54/53/54 55/54/55 67/66/67 66/65/66
f 55/54/55 56/55/56 68/67/68 67/66/67
f 56/55/56 57/56/57 69/68/69 68/67/68
f 57/56/57 58/57/58 70/69/70 69/68/69
f 58/57/58 59/58/59 71/70/71 70/69/70
f 59/58/59 60/59/60 72/71/72 71/70/71
f 60/59/60 49/49/50 61/61/62 72/71/72
f 61/61/62 62/60/61 74/72/73 73/73/74
f 62/60/61 63/183/63 75/184/75 74/72/73
f 63/62/63 64/63/64 76/75/76 75/74/75
f 64/63/64 65/64/65 77/76/77 76/75/76
f 65/64/65 66/65/66 78/77/78 77/76/77
f 66/65/66 67/66/67 79/78/79 78/77/78
f 67/66/67 68/67/68 80/79/80 79/78/79
f 68/67/68 69/68/69 81/80/81 80/79/80
f 69/68/69 70/69/70 82/81/82 81/80/81
f 70/69/70 71/70/71 83/82/83 82/81/82
f 71/70/71 72/71/72 84/83/84 83/82/83
f 72/71/72 61/61/62 73/73/74 84/83/84
f 73/73/74 74/72/73 86/84/85 85/85/86
f 74/72/73 75/184/75 87/185/87 86/84/85
f 75/74/75 76/75/76 88/87/88 87/86/87
f 76/75/76 77/76/77 89/88/89 88/87/88
f 77/76/77 78/77/78 90/89/90 89/88/89
f 78/77/78 79/78/79 91/90/91 90/89/90
f 79/78/79 80/79/80 92/91/92 91/90/91
f 80/79/80 81/80/81 93/92/93 92/91/92
f 81/80/81 82/81/82 94/93/94 93/92/93
f 82/81/82 83/82/83 95/94/95 94/93/94
f 83/82/83 84/83/84 96/95/96 95/94/95
f 84/83/84 73/73/74 85/85/86 96/95/96
f 85/85/86 86/84/85 98/96/97 97/97/98
f 86/84/85 87/185/87 99/186/99 98/96/97
f 87/86/87 88/87/88 100/99/100 99/98/99
f 88/87/88 89/88/89 101/100/101 100/99/100
f 89/88/89 90/89/90 102/101/102 101/100/101
f 90/89/90 91/90/91 103/102/103 102/101/102
f 91/90/91 92/91/92 104/103/104 103/102/103
f 92/91/92 93/92/93 105/104/105 104/103/104
f 93/92/93 94/93/94 106/105/106 105/104/105
f 94/93/94 95/94/95 107/106/107 106/105/106
f 95/94/95 96/95/96 108/107/108 107/106/107
f 96/95/96 85/85/86 97/97/98 108/107/108
f 97/97/98 98/96/97 110/108/109 109/109/110
f 98/96/97 99/186/99 111/187/111 110/108/109
f 99/98/99 100/99/100 112/111/112 111/110/111
f 100/99/100 101/100/101 113/112/113 112/111/112
f 101/100/101 102/101/102 114/113/114 113/112/113
f 102/101/102 103/102/103 115/114/115 114/113/114
f 103/102/103 104/103/104 116/115/116 115/114/115
f 104/103/104 105/104/105 117/116/117 116/115/116
f 105/104/105 106/105/106 118/117/118 117/116/117
f 106/105/106 107/106/107 119/118/119 118/117/118
f 107/106/107 108/107/108 120/119/120 119/118/119
f 108/107/108 97/97/98 109/109/110 120/119/120
f 109/109/110 110/108/109 121/120/121
f 110/108/109 111/187/111 121/120/121
f 111/110/111 112/111/112 121/120/121
f 112/111/112 113/112/113 121/120/121
f 113/112/113 114/113/114 121/120/121
f 114/113/114 115/114/115 121/120/121
f 115/114/115 116/115/116 121/120/121
f 116/115/116 117/116/117 121/120/121
f 117/116/117 118/117/118 121/120/121
f 118/117/118 119/118/119 121/120/121
f 119/118/119 120/119/120 121/120/121
f 120/119/120 109/109/110 121/120/121
f 135/121/122 134/122/123 146/123/124 147/124/125
f 136/125/126 135/121/122 147/124/125 148/126/127
f 137/127/128 136/125/126 148/126/127 149/128/129
f 138/129/130 137/127/128 149/128/129 150/130/131
f 139/131/132 138/129/130 150/130/131 151/132/133
f 140/133/134 139/131/132 151/132/133 152/188/135
f 141/197/136 140/133/134 152/188/135 153/189/137
f 142/136/138 141/134/136 153/135/137 154/137/139
f 143/138/140 142/136/138 154/137/139 155/139/141
f 144/140/142 143/138/140 155/139/141 156/141/143
f 145/142/144 144/140/142 156/141/143 157/143/145
f 134/122/123 145/142/144 157/143/145 146/123/124
f 147/124/125 146/123/124 130/144/146 131/145/147
f 148/126/127 147/124/125 131/145/147 132/146/148
f 149/128/129 148/126/127 132/146/148 133/147/149
f 150/130/131 149/128/129 133/147/149 122/148/150
f 151/132/133 150/130/131 122/148/150 123/190/151
f 152/188/135 151/132/133 123/190/151 124/149/152
f 153/189/137 152/188/135 124/149/152 125/191/153
f 154/137/139 153/135/137 125/150/153 126/151/154
f 155/139/141 154/137/139 126/151/154 127/152/155
f 156/141/143 155/139/141 127/152/155 128/153/156
f 157/143/145 156/141/143 128/153/156 129/154/157
f 146/123/124 157/143/145 129/154/157 130/144/146
f 158/155/158 159/156/159 161/157/160 160/158/161
f 159/156/159 158/155/158 180/159/162 181/160/163
f 160/158/161 161/157/160 163/196/164 162/194/165
f 162/194/165 163/196/164 165/192/166 164/193/167
f 164/163/167 165/162/166 167/164/168 166/165/169
f 166/165/169 167/164/168 169/166/170 168/167/171
f 168/167/171 169/166/170 171/168/172 170/169/173
f 170/169/173 171/168/172 173/170/174 172/171/175
f 172/171/175 173/170/174 175/172/176 174/173/177
f 174/173/177 175/172/176 177/174/178 176/175/179
f 176/175/179 177/174/178 179/176/180 178/177/181
f 178/177/181 179/176/180 181/160/163 180/159/162
f 158/155/158 160/158/161 2/195/2 1/1/1
f 160/158/161 162/194/165 3/178/5 2/195/2
f 162/161/165 164/163/167 4/6/7 3/4/5
f 164/163/167 166/165/169 5/8/9 4/6/7
f 166/165/169 168/167/171 6/10/11 5/8/9
f 168/167/171 170/169/173 7/12/13 6/10/11
f 170/169/173 172/171/175 8/14/15 7/12/13
f 172/171/175 174/173/177 9/16/17 8/14/15
f 174/173/177 176/175/179 10/18/19 9/16/17
f 176/175/179 178/177/181 11/20/21 10/18/19
f 178/177/181 180/159/162 12/22/23 11/20/21
f 180/159/162 158/155/158 1/1/1 12/22/23
f 161/157/160 159/156/159 138/129/130 139/131/132
f 163/196/164 161/157/160 139/131/132 140/133/134
f 165/192/166 163/196/164 140/133/134 141/197/136
f 167/164/168 165/162/166 141/134/136 142/136/138
f 169/166/170 167/164/168 142/136/138 143/138/140
f 171/168/172 169/166/170 143/138/140 144/140/142
f 173/170/174 171/168/172 144/140/142 145/142/144
f 175/172/176 173/170/174 145/142/144 134/122/123
f 177/174/178 175/172/176 134/122/123 135/121/122
f 179/176/180 177/174/178 135/121/122 136/125/126
f 181/160/163 179/176/180 136/125/126 137/127/128
f 159/156/159 181/160/163 137/127/128 138/129/130
